# xmcd
#
# Track frame offsets: 
#        180
#        13222
#        27866
#        40797
#        54162
#        68445
#        82983
#        98540
#        111766
#        124934
#        139413
#        153543
#        166547
#        179638
#        192403
#        206849
#        220942
#        234129
#
# Disc length: 3318 seconds
#
# Revision: 1
# Processed by: cddbd v1.5.2PL0 Copyright (c) Steve Scherf et al.
# Submitted via: ExactAudioCopy v0.99pb5
#
DISCID=ec0cf412
DTITLE=Jelly Roll Morton - The quintessence 1923-1940 | CD2
DYEAR=1900
DGENRE=Jazz
TTITLE0=The naked dance
TTITLE1=Wolverine blues
TTITLE2=Mr. Jelly Lord
TTITLE3=Smilin' the blues
TTITLE4=Turtle twist
TTITLE5=Shreveport
TTITLE6=Mournful serenade
TTITLE7=Little Lawrence
TTITLE8=Ponchartrain
TTITLE9=I thought I heard Buddy Bolden say
TTITLE10=Winin' boy blues
TTITLE11=Don't you leave me here
TTITLE12=Sweet substitute
TTITLE13=Mamie's blues
TTITLE14=Big lip blues
TTITLE15=Michigan water blues
TTITLE16=Get the bucket
TTITLE17=The pearls
EXTD=
EXTT0=
EXTT1=
EXTT2=
EXTT3=
EXTT4=
EXTT5=
EXTT6=
EXTT7=
EXTT8=
EXTT9=
EXTT10=
EXTT11=
EXTT12=
EXTT13=
EXTT14=
EXTT15=
EXTT16=
EXTT17=
PLAYORDER=
